<svg xmlns="http://www.w3.org/2000/svg" version="1.1" xmlns:xlink="http://www.w3.org/1999/xlink" xmlns:svgjs="http://svgjs.dev/svgjs" width="1920" height="1080" preserveAspectRatio="none" viewBox="0 0 1920 1080"><g mask="url(&quot;#SvgjsMask1029&quot;)" fill="none"><rect width="1920" height="1080" x="0" y="0" fill="#1e3266"></rect><path d="M2016 1080L0 1080 L0 706.3Q28.18 638.48, 96 666.67Q211.34 622.01, 256 737.35Q285.55 670.9, 352 700.45Q407.92 660.38, 448 716.3Q539.29 711.59, 544 802.87Q581.32 744.19, 640 781.51Q664.85 710.36, 736 735.21Q780.34 619.55, 896 663.89Q950.38 622.27, 992 676.65Q1089.65 678.3, 1088 775.95Q1095.19 687.14, 1184 694.34Q1257.06 607.4, 1344 680.46Q1423.83 664.29, 1440 744.12Q1497.63 641.75, 1600 699.39Q1664.72 604.11, 1760 668.82Q1861.84 610.66, 1920 712.51Q1975.9 672.41, 2016 728.32z" fill="#182f5d"></path><path d="M1952 1080L0 1080 L0 800.42Q58.19 762.61, 96 820.8Q168.32 797.12, 192 869.44Q252.04 833.48, 288 893.52Q326.8 772.32, 448 811.12Q539.29 742.41, 608 833.71Q659.84 725.55, 768 777.38Q842.73 692.11, 928 766.84Q1001.96 744.8, 1024 818.75Q1107.48 806.23, 1120 889.71Q1150.95 824.66, 1216 855.62Q1254.47 734.1, 1376 772.57Q1488.36 724.92, 1536 837.28Q1608.88 750.15, 1696 823.03Q1766.05 733.08, 1856 803.12Q1928.93 780.05, 1952 852.98z" fill="#25467d"></path><path d="M1984 1080L0 1080 L0 882.75Q84.28 871.03, 96 955.31Q132.01 895.32, 192 931.32Q261.53 904.85, 288 974.38Q359.59 885.97, 448 957.56Q512.48 862.03, 608 926.51Q662.81 885.32, 704 940.13Q729.69 869.82, 800 895.5Q908.81 844.31, 960 953.12Q1049.49 882.62, 1120 972.11Q1217.89 910, 1280 1007.9Q1294.18 926.08, 1376 940.26Q1411.5 879.76, 1472 915.26Q1573.23 856.5, 1632 957.73Q1673.15 902.88, 1728 944.03Q1788.18 844.21, 1888 904.4Q1950.61 871, 1984 933.61z" fill="#356cb1"></path><path d="M1984 1080L0 1080 L0 1055.47Q47 1006.47, 96 1053.47Q128.11 989.58, 192 1021.68Q266.74 1000.42, 288 1075.16Q327.87 955.03, 448 994.89Q545.37 932.26, 608 1029.63Q667.67 993.3, 704 1052.97Q778.13 1031.11, 800 1105.24Q827.5 972.74, 960 1000.24Q1049.17 929.41, 1120 1018.58Q1213.87 1016.45, 1216 1110.33Q1236.31 970.63, 1376 990.94Q1471.76 926.7, 1536 1022.46Q1593.01 983.47, 1632 1040.47Q1665.88 978.36, 1728 1012.24Q1758.85 947.09, 1824 977.94Q1948.97 942.92, 1984 1067.89z" fill="white"></path></g><defs><mask id="SvgjsMask1029"><rect width="1920" height="1080" fill="#ffffff"></rect></mask></defs></svg>